<svg width="36" height="31" viewBox="0 0 36 31" fill="none" xmlns="http://www.w3.org/2000/svg">
<path d="M35.5 9.9375C35.5 20.875 19.2828 29.7281 18.5922 30.0938C18.4102 30.1917 18.2067 30.2429 18 30.2429C17.7933 30.2429 17.5898 30.1917 17.4078 30.0938C16.8844 29.8125 7.47813 24.6734 2.92656 17.4547C2.86785 17.3601 2.83545 17.2516 2.83272 17.1403C2.82999 17.0291 2.85702 16.9191 2.91102 16.8218C2.96501 16.7245 3.04402 16.6433 3.13988 16.5867C3.23573 16.5302 3.34495 16.5002 3.45625 16.5H9.25C9.45585 16.5001 9.65854 16.4494 9.84008 16.3524C10.0216 16.2554 10.1764 16.115 10.2906 15.9438L11.75 13.7563L15.7094 19.6938C15.8611 19.9213 16.0832 20.0928 16.3417 20.182C16.6003 20.2712 16.8809 20.2731 17.1406 20.1875C17.4162 20.0942 17.6519 19.9102 17.8094 19.6656L19.9188 16.5H23C23.1714 16.5004 23.341 16.4655 23.4983 16.3976C23.6556 16.3297 23.7973 16.2301 23.9145 16.1051C24.0317 15.9801 24.122 15.8324 24.1797 15.671C24.2374 15.5097 24.2614 15.3382 24.25 15.1672C24.222 14.8459 24.0736 14.547 23.8346 14.3306C23.5955 14.1141 23.2834 13.996 22.9609 14H19.25C19.0442 13.9999 18.8415 14.0506 18.6599 14.1476C18.4784 14.2446 18.3236 14.385 18.2094 14.5563L16.75 16.7438L12.7906 10.8063C12.6388 10.5784 12.4164 10.4067 12.1576 10.3175C11.8987 10.2283 11.6178 10.2265 11.3578 10.3125C11.083 10.4063 10.8479 10.5902 10.6906 10.8344L8.58125 14H1.67656C1.54299 14.0004 1.41281 13.9579 1.30511 13.8789C1.19741 13.7999 1.11786 13.6885 1.07813 13.5609C0.70112 12.3898 0.506141 11.1678 0.5 9.9375C0.502895 7.3691 1.52447 4.90673 3.3406 3.0906C5.15673 1.27447 7.6191 0.252895 10.1875 0.25C13.4141 0.25 16.2391 1.6375 18 3.98281C19.7609 1.6375 22.5859 0.25 25.8125 0.25C28.3809 0.252895 30.8433 1.27447 32.6594 3.0906C34.4755 4.90673 35.4971 7.3691 35.5 9.9375Z" fill="#05A2C2"/>
</svg>
